<svg xmlns="http://www.w3.org/2000/svg" version="1.1" viewBox="0.00 0.00 714.00 136.00">
<path d="
  M 3.04 39.99
  C 5.87 25.23 15.41 13.40 29.01 7.34
  Q 37.27 3.65 48.42 2.96
  Q 76.66 1.20 97.68 21.88
  A 1.31 1.31 0.0 0 1 97.77 23.66
  Q 90.46 32.32 83.56 42.17
  Q 83.01 42.96 82.13 42.57
  C 78.73 41.06 74.81 40.69 71.18 40.72
  Q 41.38 40.94 11.01 40.94
  Q 7.69 40.94 3.67 40.79
  A 0.67 0.67 0.0 0 1 3.04 39.99
  Z"
/>
<rect fill="aqua" x="114.97" y="4.02" width="37.22" height="36.80" rx="0.78"/>
<path d="
  M 167.32 97.96
  Q 174.43 99.56 181.52 95.64
  C 186.67 92.80 190.12 86.97 190.31 81.01
  Q 190.45 76.52 190.49 71.94
  Q 190.78 38.48 190.17 4.84
  A 0.83 0.83 0.0 0 1 191.00 4.00
  L 226.51 4.00
  Q 227.02 4.00 227.01 4.51
  Q 226.93 40.30 227.06 78.39
  Q 227.08 85.55 226.00 90.10
  Q 220.62 112.91 201.76 125.61
  C 195.71 129.68 188.96 131.87 181.78 133.23
  Q 177.91 133.96 174.56 134.00
  C 170.49 134.04 165.82 134.37 161.77 133.55
  Q 159.75 133.15 157.78 132.71
  C 148.92 130.78 140.43 127.14 133.60 121.16
  Q 120.26 109.49 116.16 92.16
  Q 114.70 86.02 114.89 76.61
  Q 115.13 64.76 114.90 53.95
  A 0.58 0.58 0.0 0 1 115.49 53.35
  Q 133.07 53.75 151.49 53.29
  A 0.56 0.56 0.0 0 1 152.06 53.85
  Q 152.06 66.45 152.05 79.11
  C 152.05 88.70 157.83 95.83 167.32 97.96
  Z"
/>
<path d="
  M 281.51 125.26
  C 265.42 116.65 253.50 100.05 249.66 82.34
  Q 248.91 78.86 248.97 75.36
  C 249.08 68.17 248.30 60.90 250.13 53.78
  C 256.14 30.26 275.99 10.40 300.09 5.32
  Q 307.06 3.85 318.64 3.92
  Q 354.15 4.14 386.27 4.00
  A 0.74 0.74 0.0 0 1 387.01 4.73
  L 387.09 39.27
  A 1.49 1.48 -0.2 0 1 385.60 40.76
  Q 354.29 40.74 322.75 40.79
  C 316.05 40.80 308.72 39.93 302.68 42.69
  C 295.68 45.88 290.81 50.80 287.84 57.75
  C 285.52 63.19 284.12 68.53 285.44 74.37
  Q 288.23 86.75 298.72 93.44
  C 305.88 98.00 313.46 98.09 321.70 98.05
  Q 355.89 97.90 386.31 98.04
  Q 387.01 98.04 387.01 98.74
  L 387.04 131.54
  A 1.49 1.49 0.0 0 1 385.54 133.03
  Q 352.48 132.88 319.12 133.10
  Q 306.60 133.18 299.99 131.86
  Q 290.20 129.92 281.51 125.26
  Z"
/>
<path d="
  M 422.47 67.56
  Q 443.63 92.44 464.17 117.83
  C 468.21 122.83 472.63 127.47 476.91 132.09
  A 0.57 0.56 68.5 0 1 476.50 133.04
  L 435.00 133.04
  Q 434.49 133.04 434.12 132.70
  Q 431.15 129.97 428.52 126.87
  C 416.75 113.03 405.53 99.65 392.90 86.16
  A 2.83 2.83 0.0 0 0 390.91 85.27
  C 377.54 84.88 364.32 85.60 351.49 85.45
  A 1.46 1.46 0.0 0 1 350.05 83.99
  L 350.04 54.72
  A 1.23 1.23 0.0 0 1 351.27 53.49
  Q 369.98 53.53 388.91 53.48
  Q 390.65 53.48 391.79 52.14
  Q 404.26 37.54 419.10 18.78
  Q 425.18 11.09 431.91 4.47
  Q 432.30 4.09 432.85 4.08
  L 474.46 3.97
  A 0.76 0.76 0.0 0 1 475.03 5.24
  C 463.93 17.50 453.45 30.21 442.92 42.69
  Q 433.15 54.25 422.47 66.77
  Q 422.13 67.16 422.47 67.56
  Z"
/>
<rect x="-48.59" y="-18.38" transform="translate(535.34,22.47) rotate(-0.1)" width="97.18" height="36.76" rx="1.09"/>
<path d="
  M 685.31 93.60
  Q 686.37 95.93 687.79 98.10
  Q 698.24 114.00 710.76 131.94
  Q 711.49 132.99 710.21 132.99
  L 669.46 133.00
  A 1.74 1.73 -16.0 0 1 667.99 132.19
  Q 656.52 113.78 645.02 97.47
  Q 643.89 95.86 643.84 97.82
  Q 643.44 114.03 643.43 129.00
  Q 643.43 130.68 643.15 131.83
  A 1.50 1.49 -82.9 0 1 641.69 132.98
  L 607.09 132.93
  A 1.09 1.09 0.0 0 1 606.00 131.84
  L 606.00 54.71
  A 1.30 1.29 -90.0 0 1 607.29 53.41
  L 642.71 53.22
  A 1.18 1.17 -86.4 0 1 643.88 54.56
  Q 643.40 57.92 643.62 61.66
  C 643.78 64.60 643.63 67.20 643.46 70.03
  A 0.95 0.95 0.0 0 0 644.42 71.04
  Q 651.73 70.96 660.35 71.08
  Q 663.91 71.13 666.31 69.71
  C 672.12 66.29 673.42 60.81 673.10 54.42
  C 672.73 47.11 666.10 40.88 658.88 40.88
  Q 632.11 40.86 606.72 40.77
  A 0.74 0.73 0.0 0 1 605.98 40.04
  L 605.99 5.04
  A 0.96 0.96 0.0 0 1 606.95 4.09
  Q 630.51 4.06 654.77 4.06
  Q 663.12 4.06 671.27 6.07
  Q 698.25 12.71 708.00 39.92
  A 0.79 0.78 -10.3 0 1 707.27 40.97
  Q 703.52 41.02 699.53 40.94
  C 696.88 40.89 694.93 42.58 693.56 44.70
  C 692.03 47.08 693.75 49.99 695.71 51.61
  Q 697.60 53.18 700.10 53.08
  Q 703.98 52.91 707.91 53.01
  A 0.81 0.81 0.0 0 1 708.69 53.99
  Q 708.09 56.74 708.04 59.67
  C 707.99 63.05 706.85 66.57 705.75 69.78
  Q 700.31 85.56 685.61 92.77
  Q 685.06 93.04 685.31 93.60
  Z"
/>
<path d="
  M 63.57 97.60
  Q 66.87 95.70 67.10 92.12
  C 67.37 87.96 63.56 85.49 59.79 85.54
  Q 49.16 85.66 37.81 85.69
  Q 35.72 85.69 33.79 85.27
  C 32.09 84.90 30.48 85.11 28.77 84.67
  Q 8.40 79.42 3.21 58.18
  Q 2.74 56.25 2.78 54.33
  A 1.24 1.24 0.0 0 1 4.03 53.12
  Q 35.88 53.13 67.20 53.11
  C 73.64 53.10 81.19 54.98 86.73 58.45
  C 94.97 63.62 101.36 73.77 102.30 83.92
  A 1.17 1.17 0.0 0 1 101.16 85.20
  Q 97.49 85.30 93.95 84.98
  C 90.34 84.65 86.26 88.35 87.16 92.05
  C 87.68 94.19 89.88 97.77 92.41 97.88
  Q 97.00 98.07 101.00 97.80
  Q 101.81 97.75 101.62 98.54
  C 98.73 110.68 89.43 122.28 78.08 128.04
  Q 68.44 132.93 59.03 133.73
  Q 53.96 134.16 47.03 134.07
  C 30.94 133.84 17.24 128.51 4.09 117.92
  A 0.80 0.80 0.0 0 1 3.93 116.85
  Q 10.97 106.51 19.74 95.57
  A 1.34 1.33 -55.1 0 1 21.46 95.26
  C 24.59 97.10 28.40 98.10 32.12 98.08
  Q 47.45 97.99 61.87 98.04
  A 3.36 3.36 0.0 0 0 63.57 97.60
  Z"
/>
<path d="
  M 582.87 85.34
  L 487.78 85.71
  A 1.18 1.18 0.0 0 1 486.60 84.52
  L 486.76 54.42
  A 1.18 1.18 0.0 0 1 487.94 53.25
  L 582.74 53.26
  A 1.18 1.18 0.0 0 1 583.92 54.44
  L 584.05 84.16
  A 1.18 1.18 0.0 0 1 582.87 85.34
  Z"
/>
<rect x="486.67" y="98.04" width="97.34" height="34.96" rx="0.83"/>
</svg>
