<?xml version="1.0" standalone="no"?><!DOCTYPE svg PUBLIC "-//W3C//DTD SVG 1.1//EN" "http://www.w3.org/Graphics/SVG/1.1/DTD/svg11.dtd"><svg class="icon" width="48px" height="48.00px" viewBox="0 0 1024 1024" version="1.1" xmlns="http://www.w3.org/2000/svg"><path d="M128 341.333333C55.466667 341.333333 0 285.866667 0 213.333333s55.466667-128 128-128c25.6 0 42.666667 17.066667 42.666667 42.666667S153.6 170.666667 128 170.666667C102.4 170.666667 85.333333 187.733333 85.333333 213.333333s17.066667 42.666667 42.666667 42.666667c25.6 0 42.666667 17.066667 42.666667 42.666667S153.6 341.333333 128 341.333333zM128 938.666667c-72.533333 0-128-55.466667-128-128 0-25.6 17.066667-42.666667 42.666667-42.666667s42.666667 17.066667 42.666667 42.666667c0 25.6 17.066667 42.666667 42.666667 42.666667 25.6 0 42.666667 17.066667 42.666667 42.666667S153.6 938.666667 128 938.666667zM981.333333 938.666667 128 938.666667c-25.6 0-42.666667-17.066667-42.666667-42.666667s17.066667-42.666667 42.666667-42.666667l810.666667 0L938.666667 341.333333 128 341.333333C102.4 341.333333 85.333333 324.266667 85.333333 298.666667s17.066667-42.666667 42.666667-42.666667l853.333333 0c25.6 0 42.666667 17.066667 42.666667 42.666667l0 597.333333C1024 921.6 1006.933333 938.666667 981.333333 938.666667zM896 341.333333c-25.6 0-42.666667-17.066667-42.666667-42.666667L853.333333 170.666667 128 170.666667C102.4 170.666667 85.333333 153.6 85.333333 128s17.066667-42.666667 42.666667-42.666667l768 0c25.6 0 42.666667 17.066667 42.666667 42.666667l0 170.666667C938.666667 324.266667 921.6 341.333333 896 341.333333zM42.666667 853.333333c-25.6 0-42.666667-17.066667-42.666667-42.666667L0 213.333333c0-25.6 17.066667-42.666667 42.666667-42.666667s42.666667 17.066667 42.666667 42.666667l0 597.333333C85.333333 836.266667 68.266667 853.333333 42.666667 853.333333zM768 597.333333m-85.333333 0a2 2 0 1 0 170.666667 0 2 2 0 1 0-170.666667 0Z" /></svg>